<svg width="171" height="53" viewBox="0 0 171 53" fill="none" xmlns="http://www.w3.org/2000/svg">
<path d="M88.9594 0.520217H87.386C87.386 0.520217 87.4432 16.0247 87.4432 16.8024C87.4432 17.5801 87.3093 18.5678 88.6057 20.1815C89.9008 21.7952 101.09 35.3982 101.726 36.1202C102.362 36.8421 103.067 37.6743 103.067 39.1584V52.4892H104.57V37.0664C104.57 35.3684 103.956 34.7683 103.548 34.1747C101.944 31.8338 90.3546 14.1051 89.7487 13.2497C89.144 12.3955 88.9633 11.8861 88.9633 9.70731C88.9633 7.52848 88.9594 0.518921 88.9594 0.518921V0.520217Z" fill="#C6D0DB" stroke="#13294B" stroke-width="0.2" stroke-miterlimit="10"/>
<path d="M90.552 0.100006V9.50643C90.552 10.5947 90.9732 11.4402 92.0021 12.7973C93.0945 14.2376 104.798 29.1855 105.641 30.2647C106.485 31.3439 106.578 32.2829 106.578 34.3011V52.4879H108.264C108.264 52.4879 108.592 7.67398 108.592 4.95192C108.592 2.22986 107.322 0.100006 104.492 0.100006H90.552Z" fill="#C6D0DB" stroke="#13294B" stroke-width="0.2" stroke-miterlimit="10"/>
<path d="M111.968 3.66278V16.6367C111.968 17.7315 112.06 18.2913 112.897 19.4796C113.734 20.6679 123.909 34.5665 124.262 35.0483C124.614 35.5301 125.236 36.1249 125.236 38.2444V52.443H126.759V37.0743C126.759 35.9106 126.729 35.4444 126.212 34.6029C125.694 33.7613 114.313 13.0173 113.948 12.2991C113.582 11.5796 113.525 10.8887 113.525 9.94456V3.66278H111.966H111.968Z" fill="#C6D0DB" stroke="#13294B" stroke-width="0.2" stroke-miterlimit="10"/>
<path d="M115.259 3.45396V8.41896C115.259 9.72247 115.382 10.4981 115.845 11.1492C116.307 11.8003 127.025 28.0559 127.655 29.0818C128.286 30.1078 128.965 30.9392 128.965 33.4554V52.4892H130.809C130.809 52.4892 130.974 11.4566 130.974 7.98446C130.974 4.51233 128.794 3.45267 127.138 3.45267H115.257L115.259 3.45396Z" fill="#C6D0DB" stroke="#13294B" stroke-width="0.2" stroke-miterlimit="10"/>
<path d="M134.328 3.66278V16.6492C134.328 17.745 134.42 18.3053 135.25 19.4947C136.08 20.6842 146.17 34.5961 146.52 35.0784C146.871 35.5606 147.486 36.156 147.486 38.2775V52.4897H148.996V37.1063C148.996 35.9415 148.967 35.4748 148.454 34.6325C147.94 33.7901 136.654 13.0262 136.292 12.3074C135.93 11.5872 135.873 10.8956 135.873 9.95058V3.66278H134.327H134.328Z" fill="#C6D0DB" stroke="#13294B" stroke-width="0.2" stroke-miterlimit="10"/>
<path d="M137.472 3.45396V8.41896C137.472 9.72247 137.597 10.4981 138.066 11.1492C138.535 11.8003 149.395 28.0559 150.034 29.0818C150.672 30.1078 151.361 30.9392 151.361 33.4554V52.4892H153.23C153.23 52.4892 153.397 11.4566 153.397 7.98446C153.397 4.51233 151.188 3.45267 149.51 3.45267H137.47L137.472 3.45396Z" fill="#C6D0DB" stroke="#13294B" stroke-width="0.2" stroke-miterlimit="10"/>
<path d="M167.193 6.80594H161.253C160.472 6.80594 156.541 6.86311 156.541 10.2885V52.4895H158.418V34.253C158.418 32.7183 158.724 31.0602 159.31 29.8699C159.896 28.6796 166.54 11.6269 166.952 10.5809C167.364 9.53479 167.193 8.49133 167.193 6.80594Z" fill="#C6D0DB" stroke="#13294B" stroke-width="0.2" stroke-miterlimit="10"/>
<path d="M169.952 7.22485H168.639V9.6207C168.639 10.2482 168.571 11.7702 167.982 13.1147C167.394 14.4578 160.83 34.291 160.549 34.9872C160.267 35.6821 160.103 36.749 160.103 39.0904V52.4893H161.378V39.5948C161.378 38.3087 161.284 37.0589 162.25 35.4046C163.216 33.7503 168.494 20.9206 169.199 19.4141C169.905 17.9064 169.951 17.5395 169.951 14.7093V7.22745L169.952 7.22485Z" fill="#C6D0DB" stroke="#13294B" stroke-width="0.2" stroke-miterlimit="10"/>
<path d="M147.026 52.443C147.026 43.5989 143.738 37.7989 137.034 30.9276C134.171 27.9925 133.878 27.5678 133.878 17.7185V3.66278" stroke="#13294B" stroke-width="0.2" stroke-miterlimit="10" stroke-linecap="round" stroke-linejoin="round"/>
<path d="M125.116 52.443C125.116 43.5989 121.828 37.7989 115.125 30.9276C112.261 27.9925 111.968 27.5678 111.968 17.7185V3.66278" stroke="#13294B" stroke-width="0.2" stroke-miterlimit="10" stroke-linecap="round" stroke-linejoin="round"/>
<path d="M102.505 52.443C102.505 43.5989 98.9451 38.5158 91.2281 31.6444C87.9313 28.7094 87.3689 27.5678 87.3689 17.7172V3.66278" stroke="#13294B" stroke-width="0.2" stroke-miterlimit="10" stroke-linecap="round" stroke-linejoin="round"/>
<path d="M161.36 52.4892C161.36 43.0303 163.537 35.1228 167.891 27.6939C170.027 24.0514 169.952 20.4479 169.952 17.074" stroke="#13294B" stroke-width="0.2" stroke-miterlimit="10" stroke-linecap="round" stroke-linejoin="round"/>
<path d="M82.6693 0.520217H84.2427C84.2427 0.520217 84.1854 16.0247 84.1854 16.8024C84.1854 17.5801 84.3194 18.5678 83.023 20.1815C81.7278 21.7952 70.5385 35.3982 69.9027 36.1202C69.2668 36.8421 68.562 37.6743 68.562 39.1584V52.4892H67.0588V37.0664C67.0588 35.3684 67.6726 34.7683 68.0809 34.1747C69.6842 31.8338 81.274 14.1051 81.88 13.2497C82.4846 12.3955 82.6654 11.8861 82.6654 9.70731C82.6654 7.52848 82.6693 0.518921 82.6693 0.518921V0.520217Z" fill="#C6D0DB" stroke="#13294B" stroke-width="0.2" stroke-miterlimit="10"/>
<path d="M81.0823 0.100006V9.50643C81.0823 10.5947 80.6611 11.4402 79.6322 12.7973C78.5398 14.2376 66.8366 29.1855 65.993 30.2647C65.1494 31.3439 65.056 32.2829 65.056 34.3011V52.4879H63.3701C63.3701 52.4879 63.0422 7.67398 63.0422 4.95192C63.0422 2.22986 64.3109 0.100006 67.1424 0.100006H81.0823Z" fill="#C6D0DB" stroke="#13294B" stroke-width="0.2" stroke-miterlimit="10"/>
<path d="M59.7231 3.66278V16.6492C59.7231 17.745 59.6305 18.3053 58.7885 19.4947C57.9465 20.6842 47.712 34.5961 47.3574 35.0784C47.0029 35.5606 46.3772 36.156 46.3772 38.2775V52.4897H44.8457V37.1063C44.8457 35.9415 44.8757 35.4748 45.3958 34.6325C45.9171 33.7901 57.3639 13.0262 57.7314 12.3074C58.099 11.5872 58.1564 10.8956 58.1564 9.95058V3.66278H59.7244H59.7231Z" fill="#C6D0DB" stroke="#13294B" stroke-width="0.2" stroke-miterlimit="10"/>
<path d="M56.3699 3.45396V8.41896C56.3699 9.72247 56.2462 10.4981 55.7837 11.1492C55.3211 11.8003 44.6035 28.0559 43.9734 29.0818C43.3421 30.1078 42.663 30.9392 42.663 33.4554V52.4892H40.8192C40.8192 52.4892 40.6543 11.4566 40.6543 7.98446C40.6543 4.51233 42.8344 3.45267 44.4901 3.45267H56.3712L56.3699 3.45396Z" fill="#C6D0DB" stroke="#13294B" stroke-width="0.2" stroke-miterlimit="10"/>
<path d="M37.3002 3.66278V16.6492C37.3002 17.745 37.2089 18.3053 36.3788 19.4947C35.5486 20.6842 25.4582 34.5961 25.1087 35.0784C24.7578 35.5606 24.1423 36.156 24.1423 38.2775V52.4897H22.6323V37.1063C22.6323 35.9415 22.6619 35.4748 23.1746 34.6325C23.6887 33.7901 34.9742 13.0262 35.3366 12.3074C35.699 11.5872 35.7555 10.8956 35.7555 9.95058V3.66278H37.3014H37.3002Z" fill="#C6D0DB" stroke="#13294B" stroke-width="0.2" stroke-miterlimit="10"/>
<path d="M34.1569 3.45396V8.41896C34.1569 9.72247 34.0315 10.4981 33.5628 11.1492C33.094 11.8003 22.2335 28.0559 21.5951 29.0818C20.9566 30.1078 20.2672 30.9392 20.2672 33.4554V52.4892H18.3988C18.3988 52.4892 18.2317 11.4566 18.2317 7.98446C18.2317 4.51233 20.4409 3.45267 22.1186 3.45267H34.1582L34.1569 3.45396Z" fill="#C6D0DB" stroke="#13294B" stroke-width="0.2" stroke-miterlimit="10"/>
<path d="M4.43602 6.80594H10.3758C11.1565 6.80594 15.0881 6.86311 15.0881 10.2885V52.4895H13.2106V34.253C13.2106 32.7183 12.9047 31.0602 12.3186 29.8699C11.7324 28.6796 5.08874 11.6269 4.67663 10.5809C4.26452 9.53479 4.43602 8.49133 4.43602 6.80594Z" fill="#C6D0DB" stroke="#13294B" stroke-width="0.2" stroke-miterlimit="10"/>
<path d="M1.67651 7.22485H2.98975V9.6207C2.98975 10.2482 3.0579 11.7702 3.64637 13.1147C4.23483 14.4578 10.7984 34.291 11.0802 34.9872C11.362 35.6821 11.5258 36.749 11.5258 39.0904V52.4893H10.2506V39.5948C10.2506 38.3087 10.3449 37.0589 9.37899 35.4046C8.41307 33.7503 3.13523 20.9206 2.43012 19.4141C1.7237 17.9064 1.67782 17.5395 1.67782 14.7093V7.22745L1.67651 7.22485Z" fill="#C6D0DB" stroke="#13294B" stroke-width="0.2" stroke-miterlimit="10"/>
<path d="M24.5183 52.4897C24.5183 43.6372 27.8195 37.8316 34.5507 30.9537C37.4264 28.0158 37.7205 27.5907 37.7205 17.732V3.66278" stroke="#13294B" stroke-width="0.2" stroke-miterlimit="10" stroke-linecap="round" stroke-linejoin="round"/>
<path d="M46.5178 52.443C46.5178 43.5989 49.8055 37.7989 56.5091 30.9276C59.3731 27.9925 59.6659 27.5678 59.6659 17.7185V3.66278" stroke="#13294B" stroke-width="0.2" stroke-miterlimit="10" stroke-linecap="round" stroke-linejoin="round"/>
<path d="M69.1299 52.443C69.1299 43.5989 72.6897 38.5158 80.4067 31.6444C83.7034 28.7094 84.2659 27.5678 84.2659 17.7172V3.66278" stroke="#13294B" stroke-width="0.2" stroke-miterlimit="10" stroke-linecap="round" stroke-linejoin="round"/>
<path d="M10.2684 52.4892C10.2684 43.0303 8.09196 35.1228 3.73771 27.6939C1.60197 24.0514 1.67684 20.4479 1.67684 17.074" stroke="#13294B" stroke-width="0.2" stroke-miterlimit="10" stroke-linecap="round" stroke-linejoin="round"/>
<path d="M171 52.4895H0" stroke="#13294B" stroke-width="0.2" stroke-miterlimit="10"/>
<path d="M81.0538 38.7463L81.5617 37.4268H81.8779L82.3858 38.7372C82.4622 38.9346 82.54 39.1307 82.6164 39.3281H82.3288C82.2549 39.1333 82.1824 38.9372 82.1098 38.7424L81.7172 37.7139H81.7068L81.3168 38.7489C81.2455 38.9424 81.1743 39.1359 81.103 39.3294H80.8335C80.9255 39.0944 80.9994 38.8996 81.0564 38.7463H81.0538ZM81.2183 38.5541H82.1785V38.7866H81.2183V38.5541Z" fill="#13294B"/>
<path d="M82.8595 39.3295L82.393 37.9971C82.3412 37.8438 82.2764 37.6542 82.196 37.4283H82.4785C82.6172 37.8373 82.6819 38.0282 82.6729 38.0036L83.024 39.0295H83.0318L83.427 37.9971C83.5345 37.7166 83.6071 37.5257 83.6434 37.4283H83.9155C83.8364 37.6231 83.7626 37.8114 83.6926 37.9919L83.1717 39.3308H82.8595V39.3295Z" fill="#13294B"/>
<path d="M85.2743 39.3295H84.0122V37.4269H85.2548V37.6594H84.2752V38.2503H85.1369V38.4827H84.2752V39.0957H85.2743V39.3282V39.3295Z" fill="#13294B"/>
<path d="M85.4331 38.7412V37.4269H85.8257L86.7314 39.023H86.7392V37.4269H87.0022V39.3295H86.6174L85.7039 37.7204H85.6961V39.3295H85.4331V38.7412Z" fill="#13294B"/>
<path d="M87.5611 39.2659C87.4445 39.2022 87.3564 39.11 87.2967 38.9879C87.2371 38.8659 87.2061 38.723 87.2061 38.5568V37.4269H87.4717V38.5685C87.4717 38.684 87.4911 38.7827 87.5313 38.8659C87.5701 38.949 87.6285 39.0113 87.7036 39.0542C87.7801 39.097 87.8721 39.1191 87.9796 39.1191C88.1403 39.1191 88.266 39.0711 88.3554 38.9737C88.4448 38.8776 88.4901 38.7425 88.4901 38.5685V37.4269H88.7532V38.5568C88.7532 38.8087 88.6858 39.0061 88.5497 39.1477C88.415 39.2905 88.2245 39.3607 87.9783 39.3607C87.815 39.3607 87.6764 39.3282 87.5598 39.2646L87.5611 39.2659Z" fill="#13294B"/>
<path d="M90.2157 39.3295H88.9536V37.4269H90.1962V37.6594H89.2166V38.2503H90.0783V38.4827H89.2166V39.0957H90.2157V39.3282V39.3295Z" fill="#13294B"/>
<path d="M84.5337 36.0156V34.7013H84.9263L85.832 36.2974H85.8398V34.7013H86.1028V36.6039H85.718L84.8045 34.9948H84.7967V36.6039H84.5337V36.0156Z" fill="#13294B"/>
<path d="M86.3843 34.7013H87.0075C87.2071 34.7013 87.3833 34.7416 87.5362 34.8221C87.6891 34.9026 87.807 35.0143 87.8899 35.1585C87.9728 35.3026 88.0143 35.4689 88.0143 35.6572C88.0143 35.8455 87.9728 36.0104 87.8899 36.1546C87.807 36.2974 87.6891 36.4091 87.5362 36.487C87.3833 36.5649 87.2071 36.6052 87.0075 36.6052H86.3843V34.7026V34.7013ZM87.3561 36.3026C87.474 36.252 87.5673 36.1714 87.6347 36.0637C87.702 35.9546 87.7357 35.8195 87.7357 35.6572C87.7357 35.4948 87.702 35.3572 87.6347 35.2481C87.5673 35.139 87.474 35.0585 87.3561 35.0052C87.2382 34.952 87.1021 34.926 86.9479 34.926H86.646V36.3792H86.9479C87.1021 36.3792 87.2369 36.3533 87.3561 36.3026Z" fill="#13294B"/>
<path d="M83.031 36.6041V36.5951C83.031 36.4717 83.0608 36.3626 83.1178 36.2704C83.1748 36.1782 83.2798 36.0756 83.4262 35.9639L83.6815 35.7678C83.7864 35.686 83.8719 35.6029 83.9367 35.5197C84.0002 35.4379 84.0326 35.3431 84.0326 35.2405C84.0326 35.1327 84.0015 35.0431 83.9393 34.9743C83.8784 34.9068 83.7916 34.873 83.6841 34.873C83.5713 34.873 83.4793 34.9133 83.412 34.9925C83.3446 35.0717 83.3096 35.1873 83.3096 35.3353V35.3795H83.0491V35.3081C83.0491 35.1756 83.0777 35.06 83.1321 34.9626C83.1878 34.8652 83.2642 34.7899 83.3601 34.7379C83.456 34.686 83.5648 34.66 83.6841 34.66C83.8033 34.66 83.9082 34.6834 84.0002 34.7314C84.0922 34.7782 84.1661 34.847 84.2179 34.9327C84.2697 35.0184 84.2956 35.121 84.2956 35.2379C84.2956 35.3756 84.2542 35.5029 84.1713 35.6158C84.0896 35.7288 83.9536 35.8574 83.7683 35.999L83.6361 36.099C83.5402 36.1704 83.4677 36.2288 83.4223 36.273C83.3834 36.3106 83.3575 36.3444 83.3459 36.373H84.328V36.6067H83.031V36.6041Z" fill="#13294B"/>
<path d="M83.9802 43.7223H87.0783C87.1612 43.7223 87.2286 43.6548 87.2286 43.5729V42.8132C87.2286 42.6846 87.0718 42.6132 86.9785 42.7041C86.9785 42.7041 86.9772 42.7054 86.976 42.7067L86.3786 43.3028C86.2516 43.4288 86.0767 43.5002 85.8979 43.5002H85.1593C84.9779 43.5002 84.8069 43.4301 84.6773 43.3028L84.0813 42.7067C84.0813 42.7067 84.08 42.7054 84.0787 42.7041C83.9867 42.6132 83.8286 42.6846 83.8286 42.8145V43.5729C83.8286 43.6561 83.896 43.7223 83.9789 43.7223H83.9802Z" fill="#13294B"/>
<path d="M83.9802 40.807H87.0783C87.1612 40.807 87.2286 40.8745 87.2286 40.9563V41.7161C87.2286 41.8446 87.0718 41.9161 86.9785 41.8252C86.9785 41.8252 86.9772 41.8239 86.976 41.8226L86.3786 41.2265C86.2516 41.1005 86.0767 41.0291 85.8979 41.0291H85.1593C84.9779 41.0291 84.8069 41.0992 84.6773 41.2265L84.0813 41.8226C84.0813 41.8226 84.08 41.8239 84.0787 41.8252C83.9867 41.9161 83.8286 41.8446 83.8286 41.7148V40.9563C83.8286 40.8732 83.896 40.807 83.9789 40.807H83.9802Z" fill="#13294B"/>
<path d="M84.199 42.3765H83.0198V42.1531H84.199C84.3778 42.1531 84.5527 42.0804 84.6797 41.9544L85.2771 41.3583C85.4157 41.2193 85.6425 41.2193 85.7812 41.3583L86.3772 41.9544C86.5068 42.0829 86.6766 42.1531 86.8593 42.1531H88.0385V42.3765H86.8593C86.6779 42.3765 86.5068 42.4466 86.3772 42.5739L85.7812 43.17C85.7112 43.2388 85.6205 43.2739 85.5285 43.2739C85.4365 43.2739 85.3471 43.2401 85.2771 43.17L84.6797 42.5739C84.5527 42.4479 84.3778 42.3765 84.199 42.3765Z" fill="#13294B"/>
</svg>
