<svg width="866" height="251" viewBox="0 0 866 251" fill="none" xmlns="http://www.w3.org/2000/svg">
<path d="M865.14 249.92H0V250.193H865.14V249.92Z" fill="#E2EAF2"/>
<path d="M447.46 1.70529H439.977C439.977 1.70529 440.249 75.7563 440.249 79.4706C440.249 83.1849 439.612 87.9021 445.778 95.6093C451.938 103.316 505.157 168.286 508.181 171.734C511.206 175.182 514.558 179.157 514.558 186.245V249.914H521.707V176.253C521.707 168.144 518.788 165.277 516.846 162.442C509.22 151.262 454.096 66.5881 451.214 62.5024C448.338 58.4228 447.479 55.99 447.479 45.5837C447.479 35.1774 447.46 1.6991 447.46 1.6991V1.70529Z" fill="#3A3D48" stroke="#E2EAF2" stroke-width="0.385996" stroke-miterlimit="10"/>
<path d="M455.168 0.192993V45.0309C455.168 50.2185 457.178 54.2486 462.089 60.7176C467.302 67.5829 523.156 138.836 527.183 143.98C531.209 149.124 531.654 153.6 531.654 163.22V249.912H539.7C539.7 249.912 541.265 36.2961 541.265 23.3207C541.265 10.3454 535.204 0.192993 521.697 0.192993H455.168Z" fill="#3A3D48" stroke="#E2EAF2" stroke-width="0.385996" stroke-miterlimit="10"/>
<path d="M557.373 17.3944V79.2377C557.373 84.4563 557.812 87.1244 561.808 92.7887C565.803 98.4531 614.365 164.704 616.048 167.001C617.73 169.297 620.698 172.133 620.698 182.236V249.917H627.965V176.658C627.965 171.111 627.823 168.889 625.355 164.877C622.882 160.866 568.568 61.9847 566.824 58.5614C565.079 55.1318 564.807 51.8385 564.807 47.338V17.3944H557.367H557.373Z" fill="#3A3D48" stroke="#E2EAF2" stroke-width="0.385996" stroke-miterlimit="10"/>
<path d="M573.116 15.8737V39.571C573.116 45.7925 573.709 49.4944 575.93 52.602C578.15 55.7097 629.594 133.295 632.619 138.192C635.649 143.089 638.908 147.057 638.908 159.066V249.912H647.759C647.759 249.912 648.55 54.0692 648.55 37.4972C648.55 20.9252 638.086 15.8676 630.138 15.8676H573.109L573.116 15.8737Z" fill="#3A3D48" stroke="#E2EAF2" stroke-width="0.385996" stroke-miterlimit="10"/>
<path d="M663.639 17.3944V79.2377C663.639 84.4563 664.078 87.1244 668.073 92.7887C672.069 98.4531 720.631 164.704 722.313 167.001C724.002 169.297 726.964 172.133 726.964 182.236V249.917H734.231V176.658C734.231 171.111 734.089 168.889 731.621 164.877C729.147 160.866 674.833 61.9847 673.089 58.5614C671.345 55.1318 671.073 51.8385 671.073 47.338V17.3944H663.633H663.639Z" fill="#3A3D48" stroke="#E2EAF2" stroke-width="0.385996" stroke-miterlimit="10"/>
<path d="M679.397 15.8737V39.571C679.397 45.7925 679.991 49.4944 682.211 52.602C684.431 55.7097 735.875 133.295 738.9 138.192C741.924 143.089 745.19 147.057 745.19 159.066V249.912H754.04C754.04 249.912 754.832 54.0692 754.832 37.4972C754.832 20.9252 744.367 15.8676 736.42 15.8676H679.391L679.397 15.8737Z" fill="#3A3D48" stroke="#E2EAF2" stroke-width="0.385996" stroke-miterlimit="10"/>
<path d="M821.112 32.2858H792.409C788.636 32.2858 769.637 32.5582 769.637 48.8764V249.92H778.71V163.042C778.71 155.731 780.188 147.832 783.02 142.161C785.853 136.491 817.958 55.2526 819.949 50.2692C821.941 45.2859 821.112 40.3149 821.112 32.2858Z" fill="#3A3D48" stroke="#E2EAF2" stroke-width="0.385996" stroke-miterlimit="10"/>
<path d="M833.888 33.7824H827.691V45.2225C827.691 48.2187 827.369 55.4864 824.593 61.9059C821.816 68.3193 790.843 163.022 789.513 166.346C788.183 169.664 787.41 174.759 787.41 185.939V249.918H793.428V188.347C793.428 182.206 792.983 176.239 797.541 168.339C802.099 160.44 827.005 99.179 830.332 91.9856C833.666 84.7861 833.882 83.0342 833.882 69.5203V33.7948L833.888 33.7824Z" fill="#3A3D48" stroke="#E2EAF2" stroke-width="0.385996" stroke-miterlimit="10"/>
<path d="M724.691 249.916C724.691 207.759 709.001 180.112 677.007 147.358C663.339 133.368 661.941 131.343 661.941 84.3943V17.3943" stroke="#E2EAF2" stroke-width="0.385996" stroke-miterlimit="10" stroke-linecap="round" stroke-linejoin="round"/>
<path d="M620.125 249.917C620.125 207.759 604.434 180.112 572.441 147.358C558.773 133.368 557.375 131.343 557.375 84.3944V17.3944" stroke="#E2EAF2" stroke-width="0.385996" stroke-miterlimit="10" stroke-linecap="round" stroke-linejoin="round"/>
<path d="M512.214 249.917C512.214 207.759 495.224 183.529 458.395 150.775C442.661 136.785 439.977 131.343 439.977 84.3882V17.3944" stroke="#E2EAF2" stroke-width="0.385996" stroke-miterlimit="10" stroke-linecap="round" stroke-linejoin="round"/>
<path d="M793.422 249.92C793.422 204.779 803.67 167.041 824.172 131.588C834.229 114.205 833.876 97.0079 833.876 80.9064" stroke="#E2EAF2" stroke-width="0.385996" stroke-miterlimit="10" stroke-linecap="round" stroke-linejoin="round"/>
<path d="M417.685 1.70541H425.168C425.168 1.70541 424.896 75.7564 424.896 79.4707C424.896 83.185 425.533 87.9022 419.367 95.6094C413.207 103.317 359.988 168.286 356.963 171.734C353.939 175.182 350.587 179.157 350.587 186.245V249.914H343.438V176.253C343.438 168.144 346.357 165.278 348.299 162.442C355.924 151.262 411.049 66.5883 413.931 62.5025C416.806 58.423 417.666 55.9901 417.666 45.5838C417.666 35.1776 417.685 1.69922 417.685 1.69922V1.70541Z" fill="#3A3D48" stroke="#E2EAF2" stroke-width="0.385996" stroke-miterlimit="10"/>
<path d="M409.972 0.192993V45.0309C409.972 50.2185 407.962 54.2486 403.051 60.7176C397.838 67.5829 341.984 138.836 337.958 143.98C333.931 149.124 333.486 153.6 333.486 163.22V249.912H325.44C325.44 249.912 323.875 36.2961 323.875 23.3207C323.875 10.3454 329.93 0.192993 343.443 0.192993H409.972Z" fill="#3A3D48" stroke="#E2EAF2" stroke-width="0.385996" stroke-miterlimit="10"/>
<path d="M307.768 17.3944V79.2377C307.768 84.4563 307.329 87.1244 303.333 92.7887C299.338 98.4531 250.776 164.704 249.094 167.001C247.411 169.297 244.443 172.133 244.443 182.236V249.917H237.176V176.658C237.176 171.111 237.318 168.889 239.786 164.877C242.26 160.866 296.574 61.9847 298.318 58.5614C300.062 55.1318 300.334 51.8385 300.334 47.338V17.3944H307.774H307.768Z" fill="#3A3D48" stroke="#E2EAF2" stroke-width="0.385996" stroke-miterlimit="10"/>
<path d="M292.013 15.8737V39.571C292.013 45.7925 291.419 49.4944 289.199 52.602C286.979 55.7097 235.534 133.295 232.51 138.192C229.479 143.089 226.22 147.057 226.22 159.066V249.912H217.37C217.37 249.912 216.578 54.0692 216.578 37.4972C216.578 20.9252 227.043 15.8676 234.99 15.8676H292.019L292.013 15.8737Z" fill="#3A3D48" stroke="#E2EAF2" stroke-width="0.385996" stroke-miterlimit="10"/>
<path d="M201.49 17.3943V79.2376C201.49 84.4562 201.051 87.1244 197.056 92.7887C193.061 98.453 144.499 164.704 142.816 167.001C141.128 169.297 138.165 172.133 138.165 182.236V249.916H130.898V176.658C130.898 171.111 131.041 168.889 133.508 164.877C135.982 160.866 190.296 61.9847 192.04 58.5613C193.784 55.1318 194.056 51.8384 194.056 47.3379V17.3943H201.497H201.49Z" fill="#3A3D48" stroke="#E2EAF2" stroke-width="0.385996" stroke-miterlimit="10"/>
<path d="M185.743 15.8737V39.571C185.743 45.7925 185.15 49.4944 182.929 52.602C180.709 55.7097 129.265 133.295 126.24 138.192C123.216 143.089 119.951 147.057 119.951 159.066V249.912H111.1C111.1 249.912 110.309 54.0692 110.309 37.4972C110.309 20.9252 120.773 15.8676 128.72 15.8676H185.75L185.743 15.8737Z" fill="#3A3D48" stroke="#E2EAF2" stroke-width="0.385996" stroke-miterlimit="10"/>
<path d="M44.0304 32.2858H72.7335C76.5062 32.2858 95.5055 32.5582 95.5055 48.8764V249.92H86.4326V163.042C86.4326 155.731 84.9545 147.832 82.1219 142.161C79.2893 136.491 47.1846 55.2526 45.1931 50.2692C43.2016 45.2859 44.0304 40.3149 44.0304 32.2858Z" fill="#3A3D48" stroke="#E2EAF2" stroke-width="0.385996" stroke-miterlimit="10"/>
<path d="M31.2539 33.7823H37.451V45.2224C37.451 48.2186 37.7726 55.4863 40.5495 61.9059C43.3264 68.3192 74.2994 163.022 75.6291 166.346C76.9588 169.664 77.7319 174.759 77.7319 185.939V249.918H71.7142V188.347C71.7142 182.206 72.1595 176.238 67.6014 168.339C63.0432 160.44 38.1375 99.179 34.8101 91.9856C31.4766 84.786 31.2601 83.0341 31.2601 69.5202V33.7947L31.2539 33.7823Z" fill="#3A3D48" stroke="#E2EAF2" stroke-width="0.385996" stroke-miterlimit="10"/>
<path d="M140.441 249.917C140.441 207.759 156.132 180.112 188.125 147.358C201.794 133.368 203.191 131.343 203.191 84.3944V17.3944" stroke="#E2EAF2" stroke-width="0.385996" stroke-miterlimit="10" stroke-linecap="round" stroke-linejoin="round"/>
<path d="M245.012 249.917C245.012 207.759 260.702 180.112 292.696 147.358C306.364 133.368 307.762 131.343 307.762 84.3944V17.3944" stroke="#E2EAF2" stroke-width="0.385996" stroke-miterlimit="10" stroke-linecap="round" stroke-linejoin="round"/>
<path d="M352.93 249.917C352.93 207.759 369.919 183.529 406.749 150.775C422.483 136.785 425.167 131.343 425.167 84.3882V17.3944" stroke="#E2EAF2" stroke-width="0.385996" stroke-miterlimit="10" stroke-linecap="round" stroke-linejoin="round"/>
<path d="M71.7056 249.92C71.7056 204.779 61.4576 167.041 40.9553 131.588C30.899 114.205 31.2515 97.0079 31.2515 80.9063" stroke="#E2EAF2" stroke-width="0.385996" stroke-miterlimit="10" stroke-linecap="round" stroke-linejoin="round"/>
<path d="M409.836 185.878L412.261 179.588H413.769L416.194 185.835C416.558 186.776 416.929 187.71 417.294 188.651H415.921C415.569 187.723 415.223 186.788 414.876 185.859L413.003 180.956H412.953L411.092 185.89C410.752 186.813 410.412 187.735 410.071 188.657H408.785C409.224 187.537 409.577 186.608 409.849 185.878H409.836ZM410.622 184.962H415.204V186.07H410.622V184.962Z" fill="#E2EAF2"/>
<path d="M418.455 188.657L416.229 182.306C415.982 181.575 415.672 180.672 415.289 179.595H416.637C417.299 181.545 417.608 182.455 417.565 182.337L419.241 187.227H419.278L421.164 182.306C421.677 180.969 422.023 180.059 422.197 179.595H423.495C423.118 180.523 422.765 181.421 422.432 182.281L419.946 188.664H418.455V188.657Z" fill="#E2EAF2"/>
<path d="M429.98 188.658H423.957V179.589H429.887V180.697H425.212V183.513H429.325V184.621H425.212V187.543H429.98V188.651V188.658Z" fill="#E2EAF2"/>
<path d="M430.738 185.853V179.589H432.612L436.935 187.197H436.972V179.589H438.227V188.658H436.39L432.031 180.988H431.994V188.658H430.738V185.853Z" fill="#E2EAF2"/>
<path d="M440.894 188.354C440.337 188.051 439.917 187.611 439.632 187.029C439.348 186.448 439.199 185.767 439.199 184.974V179.588H440.467V185.03C440.467 185.581 440.56 186.051 440.751 186.448C440.937 186.844 441.215 187.141 441.574 187.345C441.939 187.549 442.378 187.655 442.891 187.655C443.658 187.655 444.258 187.426 444.684 186.961C445.111 186.503 445.328 185.859 445.328 185.03V179.588H446.583V184.974C446.583 186.175 446.261 187.116 445.612 187.791C444.969 188.472 444.06 188.806 442.885 188.806C442.106 188.806 441.444 188.651 440.887 188.348L440.894 188.354Z" fill="#E2EAF2"/>
<path d="M453.562 188.658H447.539V179.589H453.469V180.697H448.794V183.513H452.907V184.622H448.794V187.544H453.562V188.652V188.658Z" fill="#E2EAF2"/>
<path d="M426.445 172.863V166.598H428.319L432.642 174.206H432.679V166.598H433.934V175.667H432.097L427.738 167.997H427.701V175.667H426.445V172.863Z" fill="#E2EAF2"/>
<path d="M435.277 166.598H438.252C439.204 166.598 440.045 166.79 440.775 167.173C441.505 167.557 442.067 168.09 442.463 168.777C442.859 169.464 443.057 170.256 443.057 171.154C443.057 172.052 442.859 172.838 442.463 173.525C442.067 174.206 441.505 174.738 440.775 175.11C440.045 175.481 439.204 175.673 438.252 175.673H435.277V166.604V166.598ZM439.915 174.231C440.478 173.989 440.923 173.605 441.245 173.092C441.566 172.572 441.727 171.928 441.727 171.154C441.727 170.38 441.566 169.724 441.245 169.204C440.923 168.684 440.478 168.3 439.915 168.046C439.353 167.793 438.703 167.669 437.967 167.669H436.527V174.596H437.967C438.703 174.596 439.346 174.472 439.915 174.231Z" fill="#E2EAF2"/>
<path d="M419.273 175.667V175.624C419.273 175.036 419.416 174.516 419.688 174.076C419.96 173.637 420.461 173.148 421.16 172.615L422.378 171.681C422.879 171.291 423.287 170.894 423.596 170.498C423.899 170.108 424.054 169.656 424.054 169.167C424.054 168.653 423.905 168.226 423.608 167.898C423.318 167.576 422.903 167.415 422.39 167.415C421.852 167.415 421.413 167.607 421.092 167.985C420.77 168.363 420.603 168.914 420.603 169.619V169.83H419.36V169.489C419.36 168.858 419.496 168.307 419.756 167.843C420.022 167.378 420.387 167.019 420.844 166.772C421.302 166.524 421.821 166.4 422.39 166.4C422.959 166.4 423.46 166.512 423.899 166.741C424.338 166.963 424.691 167.292 424.938 167.7C425.185 168.109 425.309 168.598 425.309 169.155C425.309 169.811 425.111 170.418 424.715 170.956C424.326 171.495 423.676 172.108 422.792 172.783L422.161 173.259C421.704 173.6 421.357 173.878 421.141 174.089C420.955 174.268 420.832 174.429 420.776 174.565H425.464V175.68H419.273V175.667Z" fill="#E2EAF2"/>
<path d="M423.802 209.596H438.587C438.983 209.596 439.305 209.274 439.305 208.884V205.262C439.305 204.649 438.557 204.309 438.111 204.742C438.111 204.742 438.105 204.748 438.099 204.755L435.248 207.596C434.642 208.196 433.807 208.537 432.954 208.537H429.429C428.563 208.537 427.747 208.203 427.129 207.596L424.284 204.755C424.284 204.755 424.278 204.748 424.272 204.742C423.833 204.309 423.078 204.649 423.078 205.268V208.884C423.078 209.28 423.4 209.596 423.795 209.596H423.802Z" fill="#E2EAF2"/>
<path d="M423.802 195.698H438.587C438.983 195.698 439.305 196.02 439.305 196.41V200.032C439.305 200.645 438.557 200.985 438.111 200.552C438.111 200.552 438.105 200.546 438.099 200.539L435.248 197.698C434.642 197.097 433.807 196.757 432.954 196.757H429.429C428.563 196.757 427.747 197.091 427.129 197.698L424.284 200.539C424.284 200.539 424.278 200.546 424.272 200.552C423.833 200.985 423.078 200.645 423.078 200.026V196.41C423.078 196.014 423.4 195.698 423.795 195.698H423.802Z" fill="#E2EAF2"/>
<path d="M424.847 203.18H419.219V202.115H424.847C425.7 202.115 426.535 201.768 427.141 201.168L429.992 198.326C430.654 197.664 431.736 197.664 432.398 198.326L435.242 201.168C435.861 201.781 436.671 202.115 437.543 202.115H443.171V203.18H437.543C436.677 203.18 435.861 203.514 435.242 204.121L432.398 206.962C432.064 207.29 431.631 207.457 431.192 207.457C430.753 207.457 430.326 207.297 429.992 206.962L427.141 204.121C426.535 203.52 425.7 203.18 424.847 203.18Z" fill="#E2EAF2"/>
</svg>
