<svg width="64" height="13" viewBox="0 0 64 13" fill="none" xmlns="http://www.w3.org/2000/svg">
<path d="M5.03471 0L0 13H1.05697L2.5431 9.1645H8.60536L10.1087 13H12.3109L7.22467 0H5.03471ZM8.30126 8.36257H2.84475L5.56687 1.26542L8.30371 8.36503L8.30126 8.36257Z" fill="#E2EAF2"/>
<path d="M15.3273 0H13.2649V13H20.8795V12.1662H15.3273V0Z" fill="#E2EAF2"/>
<path d="M26.8166 0.833805C28.4008 0.833805 29.936 1.78532 30.8238 3.3156L30.8973 3.44312L31.6257 2.85701L31.5717 2.76382C30.6006 1.05942 28.7785 0 26.8166 0C23.1724 0 20.6268 2.61422 20.6268 6.35408C20.6268 8.15657 21.2301 9.82173 22.3263 11.043C23.4593 12.3035 25.0534 13 26.8166 13C28.9354 13 30.76 11.867 31.5791 10.0449L31.6183 9.95661L30.8875 9.36559L30.8189 9.51273C30.066 11.1485 28.5333 12.1662 26.8166 12.1662C24.4942 12.1662 22.8094 9.72118 22.8094 6.35408C22.8094 2.98698 24.4574 0.833805 26.8166 0.833805Z" fill="#E2EAF2"/>
<path d="M38.5465 0C34.971 0 32.4745 2.61422 32.4745 6.35408C32.4745 10.3907 34.8582 13 38.5465 13C42.2349 13 44.6186 10.3907 44.6186 6.35408C44.6186 2.61422 42.1221 0 38.5465 0ZM38.5465 12.1662C36.1849 12.1662 34.6595 9.88549 34.6595 6.35408C34.6595 3.1047 36.2585 0.833805 38.5465 0.833805C40.8346 0.833805 42.4335 3.1047 42.4335 6.35408C42.4335 9.88304 40.9082 12.1662 38.5465 12.1662Z" fill="#E2EAF2"/>
<path d="M49.8077 11.3201L46.5436 0.0907376L46.5167 0H44.3193L48.351 12.9117L48.378 13H50.2565L54.2809 0H53.246L49.8077 11.3201Z" fill="#E2EAF2"/>
<path d="M57.3117 12.1662V6.70232H63.1189V5.88568H57.3117V0.833805H63.4598V0H55.2468V13H63.7173V12.1662H57.3117Z" fill="#E2EAF2"/>
</svg>
