<svg width="118" height="24" viewBox="0 0 118 24" fill="none" xmlns="http://www.w3.org/2000/svg">
<path d="M9.29112 0.00524902L0 23.9971H1.95089L4.69433 16.917H15.8835L18.6595 23.9971H22.7238L13.3352 0.00524902H9.29518H9.29112ZM15.3226 15.4417H5.25115L10.2706 2.34225L15.3226 15.4417Z" fill="#ECD898"/>
<path d="M28.2878 0.00415039H24.4795V23.996H38.534V22.4557H28.2878V0.00415039Z" fill="#ECD898"/>
<path d="M49.496 1.54039C52.4183 1.54039 55.2552 3.29619 56.8932 6.12092L57.0314 6.35665L58.3767 5.27147L58.2791 5.10077C56.4867 1.95496 53.1214 0 49.5001 0C42.7736 0 38.0752 4.82439 38.0752 11.7297C38.0752 15.0584 39.1888 18.1311 41.2129 20.3827C43.306 22.7116 46.2486 23.9919 49.5001 23.9919C53.41 23.9919 56.7794 21.9028 58.2872 18.5375L58.3604 18.375L57.011 17.2857L56.885 17.558C55.495 20.5778 52.6662 22.4515 49.5001 22.4515C45.2163 22.4515 42.103 17.9401 42.103 11.7257C42.103 5.51127 45.1431 1.53633 49.5001 1.53633" fill="#ECD898"/>
<path d="M71.1429 0.00415039C64.5465 0.00415039 59.9375 4.82854 59.9375 11.7339C59.9375 19.1838 64.3351 24.0001 71.1429 24.0001C77.9507 24.0001 82.3484 19.1879 82.3484 11.7339C82.3484 4.82854 77.7394 0.00415039 71.1429 0.00415039ZM71.1429 22.4557C66.7819 22.4557 63.9653 18.245 63.9653 11.7298C63.9653 5.73083 66.916 1.54048 71.1429 1.54048C75.3699 1.54048 78.3165 5.73083 78.3165 11.7298C78.3165 18.245 75.4999 22.4557 71.1429 22.4557Z" fill="#ECD898"/>
<path d="M91.9233 20.8949L85.8999 0.170789L85.8512 0.00415039H81.7949L89.2368 23.8335L89.2896 23.996H92.7524L100.182 0.00415039H98.2718L91.9233 20.8949Z" fill="#ECD898"/>
<path d="M105.775 22.4557V12.376H116.497V10.8682H105.775V1.54048H117.127V0.00415039H101.967V23.996H117.598V22.4557H105.775Z" fill="#ECD898"/>
</svg>
