<svg width="64" height="13" viewBox="0 0 64 13" fill="none" xmlns="http://www.w3.org/2000/svg">
<path d="M5.03471 0L0 13H1.05697L2.5431 9.1645H8.60536L10.1087 13H12.3109L7.22467 0H5.03471ZM8.30126 8.36257H2.84475L5.56687 1.26542L8.30371 8.36503L8.30126 8.36257Z" fill="#E2EAF2"/>
<path d="M15.3276 0H13.2651V13H20.8797V12.1662H15.3276V0Z" fill="#E2EAF2"/>
<path d="M26.8167 0.833805C28.401 0.833805 29.9361 1.78532 30.8239 3.3156L30.8975 3.44312L31.6258 2.85701L31.5719 2.76382C30.6007 1.05942 28.7786 0 26.8167 0C23.1725 0 20.627 2.61422 20.627 6.35408C20.627 8.15657 21.2302 9.82173 22.3264 11.043C23.4594 12.3035 25.0535 13 26.8167 13C28.9356 13 30.7601 11.867 31.5792 10.0449L31.6185 9.95661L30.8877 9.36559L30.819 9.51273C30.0661 11.1485 28.5334 12.1662 26.8167 12.1662C24.4943 12.1662 22.8096 9.72118 22.8096 6.35408C22.8096 2.98698 24.4575 0.833805 26.8167 0.833805Z" fill="#E2EAF2"/>
<path d="M38.5467 0C34.9711 0 32.4746 2.61422 32.4746 6.35408C32.4746 10.3907 34.8583 13 38.5467 13C42.235 13 44.6187 10.3907 44.6187 6.35408C44.6187 2.61422 42.1222 0 38.5467 0ZM38.5467 12.1662C36.185 12.1662 34.6597 9.88549 34.6597 6.35408C34.6597 3.1047 36.2586 0.833805 38.5467 0.833805C40.8347 0.833805 42.4337 3.1047 42.4337 6.35408C42.4337 9.88304 40.9083 12.1662 38.5467 12.1662Z" fill="#E2EAF2"/>
<path d="M49.8077 11.3201L46.5436 0.0907376L46.5167 0H44.3193L48.351 12.9117L48.378 13H50.2565L54.2809 0H53.246L49.8077 11.3201Z" fill="#E2EAF2"/>
<path d="M57.312 12.1662V6.70232H63.1192V5.88568H57.312V0.833805H63.46V0H55.2471V13H63.7175V12.1662H57.312Z" fill="#E2EAF2"/>
</svg>
