<svg width="88" height="46" viewBox="0 0 88 46" fill="none" xmlns="http://www.w3.org/2000/svg">
<path d="M69.9803 20.1559L63.7223 13.8979C62.4969 12.6724 60.4981 12.6724 59.2608 13.8979L53.0028 20.1559C51.5632 21.5955 49.6001 22.4045 47.5657 22.4045H39.8205C37.7741 22.4045 35.823 21.5955 34.3834 20.1559L28.1254 13.8979C26.8999 12.6724 24.9012 12.6724 23.6639 13.8979L17.4059 20.1559C15.9663 21.5955 14.0032 22.4045 11.9687 22.4045H0V23.5943H11.9687C14.0151 23.5943 15.9663 24.4032 17.4059 25.8428L23.6639 32.1008C24.8893 33.3263 26.8881 33.3263 28.1254 32.1008L34.3834 25.8428C35.823 24.4032 37.786 23.5943 39.8205 23.5943H47.5657C49.612 23.5943 51.5632 24.4032 53.0028 25.8428L59.2608 32.1008C60.4862 33.3263 62.485 33.3263 63.7223 32.1008L69.9803 25.8428C71.4199 24.4032 73.383 23.5943 75.4174 23.5943H87.3862V22.4045H75.4174C73.3711 22.4045 71.4199 21.5955 69.9803 20.1559Z" fill="#1C1F2A"/>
<path d="M52.1835 33.1359L45.9255 26.8779C44.7001 25.6524 42.7013 25.6524 41.464 26.8779L35.206 33.1359C33.7664 34.5755 31.8034 35.3845 29.7689 35.3845H17.4194V36.5743H29.7689C31.8153 36.5743 33.7664 37.3833 35.206 38.8229L41.464 45.0809C42.6894 46.3064 44.6882 46.3064 45.9255 45.0809L52.1835 38.8229C53.6231 37.3833 55.5862 36.5743 57.6206 36.5743H69.9701V35.3845H57.6206C55.5743 35.3845 53.6231 34.5755 52.1835 33.1359Z" fill="#1C1F2A"/>
<path d="M35.2177 12.864L41.4757 19.122C42.7012 20.3475 44.6999 20.3475 45.9372 19.122L52.1953 12.864C53.6348 11.4244 55.5979 10.6154 57.6323 10.6154H69.9818V9.42565H57.6323C55.586 9.42565 53.6348 8.61662 52.1953 7.17703L45.9372 0.919072C44.7118 -0.306357 42.7131 -0.306357 41.4757 0.919072L35.2177 7.17703C33.7781 8.61662 31.8151 9.42565 29.7806 9.42565H17.4312V10.6154H29.7806C31.827 10.6154 33.7781 11.4244 35.2177 12.864Z" fill="#1C1F2A"/>
</svg>
